<?xml version="1.0" encoding="utf-8"?>
<!-- Generator: Adobe Illustrator 25.0.1, SVG Export Plug-In . SVG Version: 6.00 Build 0)  -->
<svg version="1.0" id="Layer_1" xmlns="http://www.w3.org/2000/svg" xmlns:xlink="http://www.w3.org/1999/xlink" x="0px" y="0px"
	 width="16px" height="16px" viewBox="0 0 16 16" enable-background="new 0 0 16 16" xml:space="preserve">
<g>
	<polygon fill-rule="evenodd" clip-rule="evenodd" fill="#F4AF3D" fill-opacity="0.7" points="1,16 16,16 16,9 1,9 	"/>
	<polygon fill-rule="evenodd" clip-rule="evenodd" fill="#9AA7B0" fill-opacity="0.8" points="7,1 3,5 7,5 	"/>
	<polygon fill-rule="evenodd" clip-rule="evenodd" fill="#9AA7B0" fill-opacity="0.8" points="8,1 8,6 3,6 3,8 13,8 13,1 	"/>
	<polygon fill-rule="evenodd" clip-rule="evenodd" fill="#231F20" fill-opacity="0.7" points="5.4,15 2,15 2,10 5.4,10 5.4,10.8 
		2.9,10.8 2.9,11.7 5,11.7 5,12.5 2.9,12.5 2.9,14.2 5.4,14.2 	"/>
	<path fill-rule="evenodd" clip-rule="evenodd" fill="#231F20" fill-opacity="0.7" d="M7,11.5C7,11.1,7.3,11,7.8,11c0,0,0.4,0,1.2,0
		v-1c-0.7,0-1.1,0-1.1,0C6.8,10,6,10.5,6,11.4c0,0.9,0.4,1.2,1.5,1.5c0.8,0.2,1,0.3,1,0.6c0,0.3-0.4,0.5-1,0.5c0,0-0.4,0-1.2,0v1
		c0.8,0,1.2,0,1.2,0c2,0,2-1,2-1.5c0-0.6-0.5-1.1-1.3-1.4S7,11.9,7,11.5z"/>
</g>
</svg>
